<svg version="1.1" xmlns="http://www.w3.org/2000/svg" xmlns:xlink="http://www.w3.org/1999/xlink" width="198.00508" height="259.19357" viewBox="0,0,198.00508,259.19357"><g transform="translate(-96.49892,-62.33346)"><g data-paper-data="{&quot;isPaintingLayer&quot;:true}" fill="#f9ff66" fill-rule="nonzero" stroke="none" stroke-width="0.5" stroke-linecap="butt" stroke-linejoin="miter" stroke-miterlimit="10" stroke-dasharray="" stroke-dashoffset="0" font-family="none" font-weight="none" font-size="none" text-anchor="none" style="mix-blend-mode: normal"><path d="M198.5,133c0,-1.38071 1.11929,-2.5 2.5,-2.5c1.38071,0 2.5,1.11929 2.5,2.5c0,1.38071 -1.11929,2.5 -2.5,2.5c-1.38071,0 -2.5,-1.11929 -2.5,-2.5z"/><path d="M281.85824,270.67241c-1.67241,1.85824 -3.53065,0.18582 -3.53065,0.18582l-1.09536,-1.09047c-3.37162,-3.37162 -4.99041,-7.37401 -8,-11c-5.5096,-6.63803 -11.99132,-12.11987 -18.25022,-18.10961c-1.85022,-1.786 -3.90688,-3.24414 -5.81583,-4.95901c-1.77947,-1.59855 -3.04303,-3.92105 -4.87749,-5.41046c-2.59921,-2.11031 -6.00643,-3.4179 -8.78869,-5.28869c-4.09209,-2.75151 -7.5804,-6.05823 -12.29057,-7.62829c0,0 -0.4654,-0.15513 -0.91515,-0.53412c-9.5184,6.36191 -20.35037,10.66241 -31.79428,10.66241c-1.7961,-0.06365 -3.54481,-0.36768 -5.2356,-0.87415c-0.5546,3.15981 -1.96586,5.97818 -2.89778,9.17983c-2.72479,9.36113 -5.62828,18.71351 -8.89894,27.90604c-5.79024,16.2741 -9.20099,33.09215 -13.29378,49.83406c-0.45286,1.8517 -0.57519,2.82026 -0.67807,4.59861l-1.09106,1.53907c0,0 -0.68346,2.40476 -3.08822,1.7213c-2.40476,-0.68346 -1.7213,-3.08822 -1.7213,-3.08822l0.90894,-0.46093c0.11248,-1.94424 0.34514,-3.58518 0.81287,-5.49765c4.13534,-16.90171 7.59409,-33.89193 13.43992,-50.32228c3.26339,-9.17211 6.15438,-18.50149 8.87642,-27.84135c0.99409,-3.41093 2.67389,-6.13033 2.85133,-9.59706c-7.81838,-4.31818 -13.94016,-12.75007 -17.05935,-20.58808c-2.08933,-5.25012 -2.87211,-11.48843 -4.24437,-16.97749c-0.56821,-2.52962 -0.70381,-5.06557 -0.719,-7.62002c-0.08453,-0.01275 -0.16872,-0.02607 -0.25255,-0.03996c-0.78107,-0.12946 -1.42505,-0.7641 -2.20943,-0.87171c-0.66667,0 -1.33333,0 -2,0c-1.19944,0 -2.40318,-0.01174 -3.6098,-0.02968c-0.47021,0.0173 -0.93496,0.02968 -1.3902,0.02968c0,0 -0.21331,0 -0.51531,-0.06231c-5.83069,-0.11049 -11.71137,-0.29713 -17.48469,0.06231c-3.54406,0.22065 -6.93301,0.97549 -10.5,1c-5.27474,0 -10.2048,1 -15.5,1l-1.89141,-0.00236c0,0 -2.49764,0.10859 -2.60623,-2.38905c-0.10859,-2.49764 2.38905,-2.60623 2.38905,-2.60623l2.10859,-0.00236c5.28258,0 10.21101,-1 15.5,-1c3.55053,0.0313 6.9643,-0.77988 10.5,-1c6.39119,-0.3979 12.91395,-0.1266 19.35481,-0.03021c1.87977,-0.07241 3.85995,-0.23121 5.64519,0.03021c0.83325,0 1.66649,0 2.49974,0c-0.00714,-7.08273 -0.14834,-14.0939 1.07491,-21.10634c0.87114,-4.99395 2.51208,-9.96021 3.79338,-14.86352c1.86506,-7.07789 4.97407,-13.60763 8.70343,-19.81457c-5.02134,-3.40932 -9.60867,-7.36374 -14.53754,-10.88688c-6.72517,-4.80713 -14.29852,-9.35526 -20.30169,-15.06093c-1,-1 -2,-2 -3,-3l-0.75651,-0.78621c0,0 -1.98156,-1.52428 -0.45728,-3.50584c1.52428,-1.98156 3.50584,-0.45728 3.50584,-0.45728l1.24349,1.21379c1,1 2,2 3,3c2.56355,2.84648 6.65653,5.03104 9.70832,7.39337c7.89351,6.1102 15.95746,12.28374 24.25816,17.85769c1.99379,-3.03974 4.10718,-6.01153 6.26187,-8.94366c-0.67421,0.05196 -1.23102,-0.17143 -1.42148,-0.9333c-0.60634,-2.42536 -0.07464,-0.60634 -0.07464,-0.60634v-1.5c1.89345,-4.2885 2.52041,-5.96622 7.87171,-3.29057c0.4714,0.2357 0.33333,1 0.5,1.5c0.11603,0.34808 0.22465,0.68944 0.33128,1.02508c0.22383,0.34892 0.31783,0.70296 0.33431,1.03598c0.38635,1.15815 0.81906,2.25712 1.54282,3.34276c0.98694,1.60176 1.21777,2.94397 2,4.5c0.2699,0.5369 1.0255,0.89962 1,1.5c-0.01623,0.38208 -1.36141,0.12766 -1.08013,0.38675c1.08044,0.9952 2.9892,-0.03248 4.38675,0.41987c1.29903,0.42046 2.3162,1.45772 3.38102,2.31236c6.42969,5.16059 11.63677,11.63677 17.5,17.5c2.77007,2.77007 5.99397,5.02951 8.73223,7.76777c2.41884,2.41884 4.04863,6.08176 6.38675,8.41987c1.21795,1.21795 2.91916,1.93647 3.98496,3.28956c0.42514,0.53974 0.04762,1.43064 0.39606,2.0228c0.82428,1.40081 2.40175,2.452 3.31236,3.88102c1.29806,2.03705 1.77205,4.14316 3.05177,6.14201c3.27134,5.679 3.36811,12.34669 3.36811,18.74474c0,2.59476 0.12775,5.52146 -0.78379,7.99877c-0.45565,1.23834 -1.74983,2.59041 -2.3445,3.79179c-2.07873,4.19953 -3.67845,8.0517 -7.10394,11.4772c-2.88942,2.88942 -6.00327,5.66311 -9.3075,8.21241c4.21729,1.90566 7.63998,4.89764 11.53973,7.51982c2.64894,1.78114 5.88495,2.99077 8.36117,5.00123c2.24917,1.82612 3.82156,4.38098 5.97265,6.29962c1.8375,1.63894 3.81017,3.03948 5.60521,4.74495c6.25515,5.98615 12.79384,11.56665 18.32874,18.18643c3.02271,3.61518 4.70302,7.70302 8,11l0.90464,0.90953c0,0 1.85824,1.67241 0.18582,3.53065z"/><path d="M277.6571,63.12809c1.87191,1.6571 -0.27035,3.95203 -0.27035,3.95203l-1.5,1c-3.93228,2.62152 -7.99432,5.60326 -11.3108,8.96687c-4.94451,5.01478 -9.03807,10.95065 -14.04042,15.953c-6.60133,6.54169 -12.40253,14.31029 -17.65395,21.94859c-2.94209,4.27934 -5.4489,9.15426 -9.11382,12.81918c0,0 -1.76777,1.76777 -3.53553,0c-1.76777,-1.76777 0,-3.53553 0,-3.53553c3.97704,-3.97704 6.74017,-9.51419 9.9455,-14.17641c4.94718,-7.19578 10.66113,-14.38343 16.82226,-20.59136c4.85278,-4.85278 8.83026,-10.61912 13.62581,-15.48282c3.70264,-3.75526 8.10946,-7.14312 12.48744,-10.06177l1.5,-1c0,0 1.17194,-1.44888 3.04385,0.20822z"/><path d="M294.48536,163.72985c0.27015,2.48536 -2.48536,2.77015 -2.48536,2.77015h-1.5c-14.7496,0 -29.4983,2.5342 -44.089,4.96598c0,0 -2.46598,0.411 -2.87698,-2.05499c-0.411,-2.46598 2.05499,-2.87698 2.05499,-2.87698c14.85456,-2.47576 29.88483,-5.03402 44.911,-5.03402h1.5c0,0 2.21521,-0.25551 2.48536,2.22985z"/></g></g></svg>