<svg version="1.1" xmlns="http://www.w3.org/2000/svg" xmlns:xlink="http://www.w3.org/1999/xlink" width="164.0557" height="255.99167" viewBox="0,0,164.0557,255.99167"><g transform="translate(-72.5,-69.50833)"><g data-paper-data="{&quot;isPaintingLayer&quot;:true}" fill="#9966ff" fill-rule="nonzero" stroke="none" stroke-width="0.5" stroke-linecap="butt" stroke-linejoin="miter" stroke-miterlimit="10" stroke-dasharray="" stroke-dashoffset="0" font-family="none" font-weight="none" font-size="none" text-anchor="none" style="mix-blend-mode: normal"><path d="M236.11869,236.32709c-1.32709,2.11869 -3.44578,0.7916 -3.44578,0.7916l-1.05966,-1.03856c-1.57813,-1.05208 -2.84077,-1.88897 -4.59044,-2.65911c-5.17625,-2.2784 -10.16821,-5.03134 -15.35874,-7.24627c-4.68023,-1.99717 -9.68932,-3.22091 -14.3657,-5.23047c-6.92818,-2.97722 -13.54049,-6.76668 -19.77431,-10.96623c-10.4847,-7.06326 -18.00522,-17.10328 -27.84906,-24.85805c-0.26975,-0.2125 -0.54649,-0.41957 -0.82894,-0.62204c2.50594,12.22059 2.49853,25.52662 0.13452,37.34669c-1.42776,7.13882 -2.15271,14.37077 -3.50611,21.51173c-1.8199,9.60238 -5.15849,19.00504 -5.83453,28.79881c-0.21125,2.92131 0.47019,7.7646 -1.16906,10.238c-0.88198,1.33078 -2.00734,2.37223 -3.27356,3.2256c1.15833,0.19196 2.33613,0.59045 3.59325,1.0095c1,0.33333 2.28281,0.2275 3,1c2.68847,2.8958 4.39814,7.54775 6.59734,10.92249c2.05856,3.15891 3.68674,6.69198 5.90078,9.73791c0.78719,1.08296 1.68584,2.07592 2.56748,3.0877l0.42475,0.01968l1.20926,-0.61742c0,0 0.02538,0.28547 -0.03771,0.6717l0.3381,0.01566c0.26352,0.79057 1.1045,1.59977 0.79057,2.37171l0.77212,2.31635c0.09499,0.2642 0.14675,0.54902 0.14675,0.84593c0,1.38071 -1.11929,2.5 -2.5,2.5c-0.85768,0 -1.61449,-0.43191 -2.06479,-1.09009l-1.4124,-2.00819c-1.39468,-1.95517 -3.11137,-3.60047 -4.52159,-5.54055c-2.17845,-2.99698 -3.77676,-6.47224 -5.80234,-9.58054c-1.21921,-1.87092 -2.63521,-3.73062 -3.66313,-5.70977c-0.3841,-0.73954 -0.84391,-1.49216 -0.92848,-2.32119c-0.03601,-0.35304 0.79588,-0.58064 0.60215,-0.87796c-0.35128,-0.53912 -4.47362,-1.74792 -5.20943,-1.87171c-0.46298,-0.07789 -1.16573,0.3763 -1.45004,0.06977c-1.72103,3.28308 -3.81499,4.80148 -6.84147,7.25535c-1.59959,1.29695 -2.29498,2.48416 -4.13763,3.63912c-1.70917,1.07129 -3.88111,1.44957 -5.6599,2.46602c-6.25572,3.5747 -12.47395,7.43211 -19.04156,10.4137c-2.13972,0.9714 -4.53185,1.42111 -6.64934,2.42539c-3.34338,1.5857 -7.27179,3.26977 -10.3333,5.31077c-1,0.66667 -1.82709,2.26218 -3,2l-1.47156,0.98104c-0.40239,0.27681 -0.88987,0.43883 -1.41519,0.43883c-1.38071,0 -2.5,-1.11929 -2.5,-2.5c0,-0.51782 0.15743,-0.99887 0.42705,-1.3979l1.22185,-1.86864c1.42195,-2.17883 2.6293,-4.67085 4.27866,-6.67702c1.65849,-2.01726 4.52922,-3.66437 6.54717,-5.297c4.53498,-3.66903 9.06995,-7.33806 13.60493,-11.00709c2.11795,-1.71348 4.25119,-3.70459 6.5883,-5.10983c1.38405,-0.83219 3.74011,-1.32004 5.21262,-1.83975c4.62019,-1.63065 9.2551,-3.22477 13.85087,-4.92308c2.87703,-1.06317 5.56144,-2.53418 8.3146,-3.6368c0.32056,-0.12838 0.83117,0.45755 1.02193,0.16972c1.527,-2.30403 0.89327,-6.96693 1.08499,-9.61806c0.74601,-9.93571 4.02386,-19.40832 5.87257,-29.15094c1.37175,-7.22906 2.10667,-14.55219 3.55215,-21.77956c2.53943,-12.69717 2.20764,-27.26978 -1.23508,-40.03596c-0.39518,-0.23381 -0.78536,-0.46922 -1.1676,-0.70811c0,0 -2.12,-1.325 -0.795,-3.44499c0.19346,-0.30954 0.40387,-0.54563 0.62215,-0.72313c-0.01165,-0.76226 0.2548,-1.83942 1.70727,-2.32358c0.09405,-0.03135 0.18561,-0.05772 0.27473,-0.07947c-0.43316,-0.24973 -0.85114,-0.51 -1.25193,-0.78105c-0.55817,-0.37749 -1.0251,-0.81918 -1.43088,-1.30397c-1.27442,1.04564 -2.54568,2.09541 -3.80243,3.16626c-1.75491,1.49532 -3.25255,3.98788 -5.25267,5.15897c-1.71441,1.0038 -3.72358,1.42418 -5.46016,2.38912c-2.67814,1.48813 -4.7486,4.23711 -7.5054,5.61569c-1.97803,0.98914 -4.38821,1.37318 -6.49012,2.07788c-2.89235,0.96412 -5.88701,1.76587 -8.63206,3.09412l-2.49549,1.24775c-0.34741,0.18291 -0.74312,0.28642 -1.16302,0.28642c-1.38071,0 -2.5,-1.11929 -2.5,-2.5c0,-0.82831 0.40283,-1.56254 1.02328,-2.01746l3.97672,-2.98254l0.58596,0.78128c2.48851,-1.01754 5.05807,-1.79786 7.62347,-2.65299c1.5496,-0.51394 3.70975,-0.656 5.11001,-1.36324c3.11141,-1.57148 5.54762,-4.52783 8.6097,-6.22929c1.17935,-0.65531 2.63859,-0.68162 3.82461,-1.32478c2.14246,-1.16184 3.93265,-4.03422 5.76683,-5.59708c1.40964,-1.20112 2.83776,-2.37583 4.26766,-3.54887c-0.11898,-0.22872 -0.2411,-0.45528 -0.36837,-0.67827c-1.34128,-2.35028 -3.41768,-4.43939 -4.39075,-6.99356c-0.43589,-1.14416 -0.49666,-3.22715 -0.84304,-4.44671c-0.54495,-1.91872 -1.59414,-3.89725 -2.34641,-5.73635c-1.36093,-3.57216 -1.71151,-7.18581 -2.29004,-10.94628c-0.80206,-5.21342 -1.93565,-10.42649 -1.5057,-15.73052c0.36127,-4.45681 1.71754,-9.03946 2.55221,-13.43235c0.79746,-4.19705 1.3893,-8.46303 2.74157,-12.51985c2.14833,-5.1592 6.84243,-9.16655 10.53052,-13.39821c2.30722,-2.64728 4.66327,-6.19615 7.54424,-8.22431c1.36283,-0.95941 3.10429,-1.21428 4.65644,-1.82142c4.96129,-1.94067 9.78421,-2.73053 15.02009,-3.60318c0,0 2.46598,-0.411 2.87698,2.05499c0.411,2.46598 -2.05499,2.87698 -2.05499,2.87698c-4.89446,0.81574 -9.40103,1.52062 -14.02066,3.32765c-1.55215,0.60714 -3.29361,0.86201 -4.65644,1.82142c-1.05038,0.73945 -1.4672,2.1153 -2.31119,3.08368c-2.19009,2.51289 -4.38019,5.02577 -6.57028,7.53866c-1.9256,2.20941 -5.88645,5.04932 -6.27129,7.92488c-1.53622,4.60865 -2.13292,9.55655 -3.03953,14.3281c-0.68082,3.58315 -1.80224,7.33835 -2.08555,10.97629c-0.36393,4.67323 0.82874,9.44334 1.53544,14.03691c0.50557,3.28622 0.5926,6.78275 1.976,9.81359c1.50152,3.67082 2.12882,7.44283 3.46453,11.09544c0.40683,1.1125 1.95855,2.66641 2.64809,3.70064c0.38449,0.57668 0.72067,1.17869 1.0379,1.78998c1.08383,-0.90833 2.16,-1.82858 3.22107,-2.77175c0,0 1.86852,-1.66091 3.52943,0.20761c1.66091,1.86852 -0.20761,3.52943 -0.20761,3.52943c-1.33616,1.1877 -2.69601,2.33941 -4.0653,3.47638c1.46163,1.60859 4.49117,2.36676 6.37272,2.73442c4.41851,0.86338 9.01783,2.54744 13.53167,2.42068c6.59256,0 12.50415,-1.7421 18.89366,-2.92536c4.2327,-0.78384 8.93953,-1.17226 12.92152,-2.97902c4.27683,-1.94054 8.31569,-5.0055 11.65387,-8.25404c3.59264,-3.46349 7.99991,-6.81988 10.13234,-11.43857c4.57709,-9.91364 3.39861,-20.80498 3.39861,-31.40301c0,-2.76299 -1.01902,-5.54067 -1.65134,-8.22803c-1.65489,-7.0333 -4.65908,-16.72105 -11.15196,-21.03974c-1.1208,-0.74549 -2.56084,-0.83815 -3.80662,-1.34804c-3.01271,-1.23309 -6.0617,-2.28085 -9.10871,-3.42118c-1.80486,-0.67682 -3.93534,-1.23733 -5.65918,-2.12219c-2.02267,-1.03826 -3.57174,-2.64795 -5.91276,-2.96911c-2.52246,-0.34606 -5.62686,0.12829 -8.20943,0.12829h-2c0,0 0.48226,-0.41337 1.01204,-0.83093c-0.74115,-0.91847 -1.01204,-4.16907 -1.01204,-4.16907h2c3.18809,0 6.63741,-0.33344 9.79057,0.12829c2.43669,0.35682 4.039,1.97865 6.08724,3.03089c1.72317,0.88524 3.85476,1.44553 5.65918,2.12219c4.75685,1.78768 10.44233,3.08654 14.69525,5.91533c7.15139,4.75668 10.65927,15.67705 12.48351,23.43007c0.72195,3.06831 1.78425,6.2102 1.78425,9.37323c0,11.69515 0.86946,23.15263 -4.17579,34.08028c-2.29623,4.97347 -7.01905,8.63404 -10.88493,12.36095c-4.01272,3.83837 -8.64857,7.18941 -13.75447,9.46315c-4.05137,1.80414 -8.77949,2.23099 -13.07848,3.02098c-6.79893,1.24939 -13.09589,3.07464 -20.10634,3.07464c-5.53358,-0.10155 -12.64067,-1.16945 -18.25261,-3.57824c0.08572,0.17188 0.12432,0.28767 0.12432,0.28767c0.25485,0.76454 0.49836,1.53686 0.7306,2.31621c1.80627,1.04392 3.63356,2.10594 5.22269,3.35437c9.89481,7.77341 17.49414,17.87868 27.99265,24.95124c6.05998,4.08244 12.48077,7.74625 19.21679,10.64089c4.49608,1.93208 9.33255,3.08111 13.83513,5.00247c5.29608,2.25997 10.38846,5.04644 15.66757,7.37011c1.94372,0.85555 3.5871,1.90015 5.34961,3.07516l0.94034,0.96144c0,0 2.11869,1.32709 0.7916,3.44578zM128.53392,288.65858c-0.87145,0.30643 -1.73523,0.6029 -2.56935,0.91113c-4.61873,1.70679 -9.27664,3.30921 -13.9199,4.94801c-1.42912,0.5044 -3.8757,1.00215 -5.21262,1.83975c-1.76945,1.10857 -3.47031,2.95737 -5.10751,4.282c-4.53498,3.66903 -9.06995,7.33806 -13.60493,11.00709c-1.59803,1.29289 -3.80205,2.61691 -5.44448,4.13065c0.67155,-0.30556 1.35057,-0.61822 2.03878,-0.95536c10.02184,-4.90959 19.95667,-9.65585 29.71635,-15.23281c1.97957,-1.13118 4.37722,-1.58074 6.28365,-2.76719c1.89514,-1.17943 4.07103,-3.44584 5.89934,-4.90198c0.96559,-0.76903 1.40452,-2.10828 1.92067,-3.26129z"/><path d="M164.39366,123.42536c-2.42536,-0.60634 -1.81902,-3.0317 -1.81902,-3.0317l-0.07464,-0.39366c0,-4.17326 -0.41382,-8.65707 0.12829,-12.79057c0.33217,-2.53274 2.02508,-4.96871 3.08718,-7.22478c1.81109,-3.84705 3.56874,-7.74299 4.91282,-11.77522c0,0 0.79057,-2.37171 3.16228,-1.58114c2.37171,0.79057 1.58114,3.16228 1.58114,3.16228c-1.39473,4.18418 -3.20786,8.23327 -5.08718,12.22478c-0.97978,2.08097 -2.63934,4.41392 -2.91282,6.77522c-0.40934,3.53436 0.12829,7.62042 0.12829,11.20943l-0.07464,1.60634c0,0 -0.60634,2.42536 -3.0317,1.81902z"/><path d="M179.80064,132.49204c-2.49204,-0.19936 -2.29268,-2.6914 -2.29268,-2.6914l-0.00796,-1.80064c0,-2.89188 -0.24744,-5.92573 0.12829,-8.79057c0.27403,-2.08945 1.64006,-4.08891 1.87171,-6.20943c0.28374,-2.59732 0,-5.37755 0,-8c0,0 0,-2.5 2.5,-2.5c2.5,0 2.5,2.5 2.5,2.5c0,2.61982 0.29183,5.4068 0,8c-0.30124,2.67687 -1.8261,5.18136 -2.12829,7.79057c-0.2638,2.27773 0.12829,4.88096 0.12829,7.20943l-0.00796,2.19936c0,0 -0.19936,2.49204 -2.6914,2.29268z"/><path d="M200.4,147.7c-0.7,2.4 -1.01325,1.38013 -1.01325,1.38013l-1.5,1c-1.61881,1.05797 -3.54377,1.66105 -5.11898,2.68764c-1.01128,0.65907 -1.64984,1.79208 -2.64973,2.4683c-4.25435,2.8772 -10.34549,6.26393 -15.61803,6.26393c-6.27938,-0.91333 -13.04212,-6.21777 -16.73607,-11.38197c-1.31558,-1.8392 -1.54536,-4.67405 -2.5317,-6.35027c-0.54765,-0.9307 -1.57587,-1.48458 -2.26657,-2.31467c-1.81591,-2.18236 -3.35097,-4.69136 -5,-7c0,0 -1.4531,-2.03433 0.58124,-3.48743c2.03433,-1.4531 3.48743,0.58124 3.48743,0.58124c2.04183,2.85857 4.95223,5.74153 6.73343,8.68533c1.44634,2.39037 1.82197,5.3401 3.4683,7.64973c0.96753,1.35735 2.83699,2.65556 4.0317,3.85027c1.92451,1.92451 4.3367,2.68232 6.61898,4.18764c0.47704,0.31464 1.46443,1.13187 1.61325,0.58013c5.48944,0 10.54,-4.43257 14.73223,-7.26777c1.88002,-1.27145 4.00943,-2.02936 5.88102,-3.31236l1.5,-1c0,0 4.48675,0.38013 3.78675,2.78013z"/></g></g></svg>