<svg width="220" height="194" xmlns="http://www.w3.org/2000/svg">
 <style type="text/css">.st0{fill:#FFFFFF;}
	.st1{fill:none;stroke:#000000;stroke-width:2;stroke-miterlimit:10;}
	.st2{fill:none;stroke:#000000;stroke-width:3;stroke-linejoin:round;stroke-miterlimit:10;}
	.st3{enable-background:new    ;}
	.st4{fill:#181716;}</style>

 <g>
  <title>background</title>
  <rect fill="none" id="canvas_background" height="196" width="222" y="-1" x="-1"/>
 </g>
 <g>
  <title>Layer 1</title>
  <g id="Layer_2_1_"/>
  <g transform="rotate(90 109.45011901855469,97.2534637451172) " id="Layer_1_1_">
   <g id="svg_1">
    <path id="svg_2" d="m109.5,200.400002c-49.6,0 -90,-40.4 -90,-90c0,-40.3 26.9,-75.8 65.6,-86.7c5.3,-8.2 14.6,-13.3 24.4,-13.3s19.1,5.1 24.4,13.3c38.7,10.9 65.6,46.4 65.6,86.7c0,49.6 -40.4,90 -90,90z" class="st0"/>
    <path id="svg_3" d="m109.5,12.900002c9.7,0 18.2,5.2 22.8,13c37.3,10 64.7,44.1 64.7,84.5c0,48.3 -39.2,87.5 -87.5,87.5s-87.5,-39.2 -87.5,-87.5c-0.1,-40.5 27.4,-74.5 64.7,-84.5c4.6,-7.8 13.1,-13 22.8,-13m0,-5c-10.4,0 -20.1,5.2 -26,13.7c-39.3,11.5 -66.6,47.7 -66.6,88.8c0,51 41.5,92.5 92.5,92.5s92.5,-41.5 92.5,-92.5c0,-41.1 -27.3,-77.4 -66.6,-88.8c-5.7,-8.5 -15.5,-13.7 -25.8,-13.7l0,0z"/>
   </g>
   <path id="svg_4" d="m135.6,17.500002c-6.3,-7.5 -15.6,-12.2 -26.1,-12.2s-19.9,4.7 -26.1,12.2c-40.7,11.4 -70.4,48.6 -70.4,92.9c0,50.2 38.3,91.4 87.2,96.1c1.4,0.1 2.7,-0.9 3,-2.3c0.4,-2.1 0.8,-4.2 1.2,-6.2l3.3,0c-47.5,-1 -85.7,-39.8 -85.7,-87.5c-0.1,-40.6 27.4,-74.6 64.7,-84.6c4.6,-7.8 13.1,-13 22.8,-13s18.2,5.2 22.8,13c37.3,10 64.7,44.1 64.7,84.5c0,47.3 -37.5,85.8 -84.4,87.5l1.9,0c0.4,2.1 0.8,4.2 1.2,6.3c0.3,1.4 1.6,2.4 3,2.3c48.9,-4.7 87.2,-45.9 87.2,-96.1c0.1,-44.3 -29.7,-81.5 -70.3,-92.9z"/>
   <g id="svg_5">
    <path id="svg_6" d="m130.4,91.400002c0.1,0 0.3,0.1 0.3,0.3l0,19.8c0,0.1 -0.1,0.3 -0.3,0.3l-43.1,0c-0.1,0 -0.3,-0.1 -0.3,-0.3l0,-19.8c0,-0.1 0.1,-0.3 0.3,-0.3l43.1,0m0,-4l-43.1,0c-2.3,0 -4.3,1.9 -4.3,4.3l0,19.8c0,2.3 1.9,4.3 4.3,4.3l43.1,0c2.3,0 4.3,-1.9 4.3,-4.3l0,-19.8c-0.1,-2.4 -2,-4.3 -4.3,-4.3l0,0z"/>
   </g>
   <g id="svg_7">
    <g id="svg_8">
     <path id="svg_9" d="m45.1,135.100002l-13,0c-3.1,0 -5.7,-2.5 -5.7,-5.7l0,-39.1c0,-3.1 2.5,-5.7 5.7,-5.7l13,0c3.1,0 5.7,2.5 5.7,5.7l0,39.1c0,3.2 -2.6,5.7 -5.7,5.7z"/>
    </g>
   </g>
   <g id="svg_10">
    <g id="svg_11">
     <path id="svg_12" d="m186.7,135.100002l-13,0c-3.1,0 -5.7,-2.5 -5.7,-5.7l0,-39.1c0,-3.1 2.5,-5.7 5.7,-5.7l13,0c3.1,0 5.7,2.5 5.7,5.7l0,39.1c0,3.2 -2.5,5.7 -5.7,5.7z"/>
    </g>
   </g>
   <g id="svg_13">
    <path id="svg_14" d="m154.1,15.000002c0,-0.8 -0.6,-1.4 -1.4,-1.4l-7.5,0c-0.8,0 -1.4,0.6 -1.4,1.4l0,36.3c0,0.8 0.6,1.4 1.4,1.4l7.5,0c0.8,0 1.4,-0.6 1.4,-1.4l0,-36.3z" class="st0"/>
    <path id="svg_15" d="m154.1,15.000002c0,-0.8 -0.6,-1.4 -1.4,-1.4l-7.5,0c-0.8,0 -1.4,0.6 -1.4,1.4l0,36.3c0,0.8 0.6,1.4 1.4,1.4l7.5,0c0.8,0 1.4,-0.6 1.4,-1.4l0,-36.3z" class="st1"/>
   </g>
   <g id="svg_16">
    <path id="svg_17" d="m72,15.000002c0,-0.8 -0.6,-1.4 -1.4,-1.4l-7.5,0c-0.8,0 -1.4,0.6 -1.4,1.4l0,36.3c0,0.8 0.6,1.4 1.4,1.4l7.5,0c0.8,0 1.4,-0.6 1.4,-1.4l0,-36.3z" class="st0"/>
    <path id="svg_18" d="m72,15.000002c0,-0.8 -0.6,-1.4 -1.4,-1.4l-7.5,0c-0.8,0 -1.4,0.6 -1.4,1.4l0,36.3c0,0.8 0.6,1.4 1.4,1.4l7.5,0c0.8,0 1.4,-0.6 1.4,-1.4l0,-36.3z" class="st1"/>
   </g>
   <g id="svg_19">
    <path id="svg_20" d="m156.9,167.700002c0,-0.8 -0.6,-1.4 -1.4,-1.4l-7.5,0c-0.8,0 -1.4,0.6 -1.4,1.4l0,36.2c0,0.8 0.6,1.4 1.4,1.4l7.5,0c0.8,0 1.4,-0.6 1.4,-1.4l0,-36.2z" class="st0"/>
    <path id="svg_21" d="m156.9,167.700002c0,-0.8 -0.6,-1.4 -1.4,-1.4l-7.5,0c-0.8,0 -1.4,0.6 -1.4,1.4l0,36.2c0,0.8 0.6,1.4 1.4,1.4l7.5,0c0.8,0 1.4,-0.6 1.4,-1.4l0,-36.2z" class="st1"/>
   </g>
   <g id="svg_22">
    <path id="svg_23" d="m73.4,167.700002c0,-0.8 -0.6,-1.4 -1.4,-1.4l-7.5,0c-0.8,0 -1.4,0.6 -1.4,1.4l0,36.2c0,0.8 0.6,1.4 1.4,1.4l7.5,0c0.8,0 1.4,-0.6 1.4,-1.4l0,-36.2z" class="st0"/>
    <path id="svg_24" d="m73.4,167.700002c0,-0.8 -0.6,-1.4 -1.4,-1.4l-7.5,0c-0.8,0 -1.4,0.6 -1.4,1.4l0,36.2c0,0.8 0.6,1.4 1.4,1.4l7.5,0c0.8,0 1.4,-0.6 1.4,-1.4l0,-36.2z" class="st1"/>
   </g>
   <g id="svg_25">
    <path id="svg_26" d="m112.4,-10.599998c0,-0.8 -0.6,-1.4 -1.4,-1.4l-7.5,0c-0.8,0 -1.4,0.6 -1.4,1.4l0,36.3c0,0.8 0.6,1.4 1.4,1.4l7.5,0c0.8,0 1.4,-0.6 1.4,-1.4l0,-36.3z" class="st0"/>
    <path id="svg_27" d="m112.4,-10.599998c0,-0.8 -0.6,-1.4 -1.4,-1.4l-7.5,0c-0.8,0 -1.4,0.6 -1.4,1.4l0,36.3c0,0.8 0.6,1.4 1.4,1.4l7.5,0c0.8,0 1.4,-0.6 1.4,-1.4l0,-36.3z" class="st1"/>
   </g>
   <g id="svg_28">
    <path id="svg_29" d="m169.3,66.900002c0,-3.1 -2.4,-5.6 -5.4,-5.7l-7.2,-8.4l-20.8,0l0,8.4c-2.6,0.4 -4.7,2.6 -4.7,5.4c0,2.7 2,5 4.7,5.4l0,8.5l28,0l0,-7.8c3,-0.3 5.4,-2.8 5.4,-5.8z" class="st2"/>
   </g>
   <g id="svg_30" class="st3">
    <path id="svg_31" d="m144.2,73.700002l0,-3.1c6.1,-4.3 6.7,-4.8 6.7,-5.8c0,-0.6 -0.7,-1 -1.5,-1c-1.4,0 -2.5,0.5 -3.5,1.4l-2.2,-2.7c1.5,-1.6 3.8,-2.3 5.6,-2.3c3.5,0 5.7,1.9 5.7,4.6c0,1.8 -1,3.3 -4.2,5.4l4.3,0l0,3.5l-10.9,0z"/>
   </g>
   <g id="svg_32">
    <path id="svg_33" d="m128.3,41.000002c0,-3.1 -2.4,-5.6 -5.4,-5.7l0,0l-7.2,-8.4l-20.8,0l0,8.4c-2.6,0.4 -4.7,2.6 -4.7,5.4c0,2.7 2,5 4.7,5.4l0,8.5l28,0l0,-7.8c3,-0.2 5.4,-2.7 5.4,-5.8z" class="st2"/>
   </g>
   <g id="svg_34" class="st3">
    <path id="svg_35" d="m106.7,48.000002l0,-8.2l-2.3,2.2l-2.3,-2.4l5.1,-5l3.5,0l0,13.3l-4,0l0,0.1z" class="st4"/>
   </g>
   <g id="svg_36">
    <path id="svg_37" d="m87.4,66.900002c0,-3.1 -2.4,-5.6 -5.4,-5.7l-7.2,-8.4l-20.8,0l0,8.4c-2.6,0.4 -4.7,2.6 -4.7,5.4c0,2.7 2,5 4.7,5.4l0,8.5l28,0l0,-7.8c3,-0.3 5.4,-2.8 5.4,-5.8z" class="st2"/>
   </g>
   <g id="svg_38" class="st3">
    <path id="svg_39" d="m61.9,72.100002l2.2,-2.8c0.9,0.8 2.2,1.2 3.4,1.2c1.3,0 1.9,-0.5 1.9,-1.1c0,-0.6 -0.5,-1.1 -1.8,-1.1c-1,0 -1.8,0.3 -2.5,0.9l-2.8,-0.6l0,-8.1l10.2,0l0,3.5l-6.2,0l0,1.9c0.6,-0.6 1.7,-1 2.8,-1c2.3,0 4.3,1.7 4.3,4.4c0,2.9 -2.2,4.8 -5.9,4.8c-2.4,-0.1 -4.3,-0.8 -5.6,-2z" class="st4"/>
   </g>
   <g id="svg_40">
    <path id="svg_41" d="m130.4,152.100002c0,3.1 2.4,5.6 5.4,5.7l7.2,8.4l20.8,0l0,-8.4c2.6,-0.4 4.7,-2.6 4.7,-5.4c0,-2.7 -2,-5 -4.7,-5.4l0,-8.5l-28,0l0,7.8c-3,0.2 -5.4,2.7 -5.4,5.8z" class="st2"/>
   </g>
   <g id="svg_42">
    <path id="svg_43" d="m48.6,152.100002c0,3.1 2.4,5.6 5.4,5.7l7.2,8.4l20.8,0l0,-8.4c2.6,-0.4 4.7,-2.6 4.7,-5.4c0,-2.7 -2,-5 -4.7,-5.4l0,-8.5l-28,0l0,7.8c-3,0.2 -5.4,2.7 -5.4,5.8z" class="st2"/>
   </g>
   <g id="svg_44" class="st3">
    <path id="svg_45" d="m145.2,158.000002l2,-2.8c1,0.9 2.6,1.3 3.6,1.3c1.3,0 1.9,-0.4 1.9,-0.9c0,-0.5 -0.3,-0.7 -2.1,-0.7c-0.6,0 -1.7,0 -1.9,0l0,-3.6c0.3,0 1.5,0 1.9,0c1.3,0 1.8,-0.2 1.8,-0.7c0,-0.6 -0.8,-0.9 -2,-0.9c-1.1,0 -2.3,0.4 -3.3,1.2l-1.9,-2.5c1.2,-1.3 3,-2.2 5.6,-2.2c3.7,0 5.6,1.5 5.6,3.7c0,1.4 -1.2,2.7 -2.9,3c1.5,0.2 3.2,1.3 3.2,3.1c0,2.4 -2.3,4 -5.8,4c-2.5,0 -4.5,-0.8 -5.7,-2z" class="st4"/>
   </g>
   <g id="svg_46" class="st3">
    <path id="svg_47" d="m68.5,159.800002l0,-2.1l-6.4,0l0,-3.1l4.9,-8.1l5.6,0l0,7.7l1.5,0l0,3.5l-1.5,0l0,2.1l-4.1,0zm0,-9.9l-2.5,4.2l2.5,0l0,-4.2z" class="st4"/>
   </g>
  </g>
 </g>
</svg>